# xmcd
#
# Track frame offsets:
#	150
#	21139
#	44190
#	74283
#	111347
#	138959
#	160696
#	181558
#	189854
#	193461
#	233689
#
# Disc length: 3454 seconds
#
# Revision: 1
# Processed by: cddbd v1.5.1PL0 Copyright (c) Steve Scherf et al.
# Submitted via: EasyCDDAExtractor 8.0.2.1
#
DISCID=930d7c0b
DTITLE=Judas Priest - KB Hallen Copenhagen 10-05-88 Disc 2
DYEAR=1988
DGENRE=Hard Rock
TTITLE0=Some Heads Are Gonna Roll
TTITLE1=Ram It Down
TTITLE2=Heavy Metal
TTITLE3=Victim Of Changes
TTITLE4=Green Manalishi
TTITLE5=Living After Midnight
TTITLE6=Johnny B Goode
TTITLE7=Encore Break
TTITLE8=Crowd Chant
TTITLE9=You've Got Another Thing Coming
TTITLE10=Hell Bent For Leather
EXTD=
EXTT0=
EXTT1=
EXTT2=
EXTT3=
EXTT4=
EXTT5=
EXTT6=
EXTT7=
EXTT8=
EXTT9=
EXTT10=
PLAYORDER=
